<?xml version="1.0" standalone="no"?>
<!DOCTYPE svg PUBLIC "-//W3C//DTD SVG 20010904//EN"
 "http://www.w3.org/TR/2001/REC-SVG-20010904/DTD/svg10.dtd">
<svg version="1.0" xmlns="http://www.w3.org/2000/svg"
 width="188.000000pt" height="189.000000pt" viewBox="0 0 188.000000 189.000000"
 preserveAspectRatio="xMidYMid meet">

<g transform="translate(0.000000,189.000000) scale(0.100000,-0.100000)"
fill="#000000" stroke="none">
<path d="M843 1338 c-28 -14 -30 -44 -4 -58 11 -5 49 -10 84 -10 50 0 70 5 88
20 l24 20 -24 20 c-18 15 -37 20 -85 19 -33 0 -71 -5 -83 -11z"/>
<path d="M810 1229 c-90 -8 -171 -30 -265 -74 -67 -31 -185 -118 -185 -136 0
-5 41 -9 91 -9 88 0 92 1 132 34 90 72 196 106 338 106 153 0 311 -41 433
-112 30 -18 59 -28 77 -26 28 3 27 4 -29 46 -31 23 -97 63 -147 87 -152 74
-276 98 -445 84z"/>
<path d="M266 872 c-6 -10 46 -152 56 -152 4 0 15 17 24 38 l16 37 16 -35 c9
-19 18 -37 19 -39 7 -10 24 18 47 82 29 75 16 93 -15 21 -22 -52 -27 -51 -49
9 -9 23 -20 40 -25 37 -6 -3 -9 -9 -7 -15 7 -19 -9 -76 -20 -73 -6 2 -18 22
-27 45 -18 47 -27 58 -35 45z"/>
<path d="M495 805 c-26 -72 -29 -111 -5 -66 14 28 54 27 73 -1 8 -13 18 -20
22 -16 8 7 -44 158 -55 158 -5 0 -20 -34 -35 -75z m45 -5 c0 -11 -7 -20 -15
-20 -17 0 -18 2 -9 24 9 23 24 20 24 -4z"/>
<path d="M627 873 c-7 -15 5 -153 14 -153 12 0 12 147 0 155 -5 3 -11 2 -14
-2z"/>
<path d="M827 873 c-4 -3 -7 -39 -7 -80 l0 -73 40 0 c22 0 40 5 40 10 0 6 -11
10 -24 10 -14 0 -27 4 -30 9 -10 16 5 41 25 41 10 0 19 5 19 10 0 6 -9 10 -19
10 -10 0 -21 6 -23 13 -9 22 3 37 28 37 14 0 22 4 19 10 -7 11 -58 14 -68 3z"/>
<path d="M947 873 c-11 -11 -8 -153 3 -153 6 0 10 11 10 25 0 33 19 32 46 -2
26 -33 42 -25 20 9 -13 20 -14 29 -3 57 11 30 10 34 -12 52 -23 19 -52 25 -64
12z m52 -27 c15 -18 3 -46 -20 -46 -13 0 -19 7 -19 23 0 37 18 48 39 23z"/>
<path d="M1388 872 c-28 -3 -28 -4 -28 -78 l0 -74 35 0 c19 0 35 5 35 10 0 6
-11 10 -25 10 -32 0 -36 39 -5 47 26 7 26 23 -1 23 -31 0 -22 42 11 50 31 7
14 17 -22 12z"/>
<path d="M1479 876 c-2 -2 -3 -38 -1 -80 4 -76 4 -76 31 -76 43 0 81 56 51 75
-5 3 -7 19 -3 35 5 25 2 31 -21 40 -29 11 -50 13 -57 6z m56 -41 c0 -11 -8
-21 -17 -23 -14 -3 -18 3 -18 23 0 20 4 26 18 23 9 -2 17 -12 17 -23z m3 -67
c-5 -34 -38 -37 -38 -4 0 20 5 26 21 26 15 0 20 -5 17 -22z"/>
<path d="M693 863 c26 -4 27 -6 27 -74 0 -89 18 -90 22 -2 3 62 5 68 28 74 16
4 1 7 -40 7 -36 -1 -53 -3 -37 -5z"/>
<path d="M1147 803 c32 -89 39 -95 58 -50 8 20 17 37 20 37 3 0 11 -16 19 -35
8 -19 19 -35 24 -35 4 0 20 34 35 75 14 41 22 75 18 75 -9 0 -41 -61 -41 -79
0 -26 -20 -7 -36 34 -20 53 -42 60 -36 13 2 -19 -3 -42 -11 -52 -13 -18 -15
-16 -31 32 -10 29 -23 52 -31 52 -9 0 -6 -18 12 -67z"/>
<path d="M77 589 c14 -14 1683 -13 1697 1 7 7 -280 10 -849 10 -604 0 -856 -3
-848 -11z"/>
</g>
</svg>
